# xmcd
#
# Track frame offsets:
#	150
#	14762
#	33037
#	58811
#	74159
#	99465
#	113133
#	114907
#	127855
#	145647
#	158924
#
# Disc length: 2205 seconds
#
# Revision: 1
# Processed by: cddbd v1.5.1PL2 Copyright (c) Steve Scherf et al.
# Submitted via: EasyCDDAExtractor 5.0.6
#
DISCID=92089b0b
DTITLE=We Are Wolves - Non-Stop Je Te Plie En Deux
DYEAR=2005
DGENRE=Indie
TTITLE0=Little Biros
TTITLE1=L.L.Romeo
TTITLE2=La Nature
TTITLE3=Snare Me
TTITLE4=Namai-Taila-Cambodge (Go-Tabla-Go)
TTITLE5=Non Stop
TTITLE6=Moi Rythme Magique
TTITLE7=Vostros, Monstruos
TTITLE8=T.R.O.U.B.L.E
TTITLE9=We Are All Winners
TTITLE10=Glazé, Blazé (Glazed The Blazed)
EXTD=YEAR: 2005
EXTT0=
EXTT1=
EXTT2=
EXTT3=
EXTT4=
EXTT5=
EXTT6=
EXTT7=
EXTT8=
EXTT9=
EXTT10=
PLAYORDER=
